<svg xmlns="http://www.w3.org/2000/svg" width="281.5" height="155.91" viewBox="0 0 281.5 155.91"><defs><style>.cls-1{isolation:isolate;}.cls-2{fill:red;}</style></defs><g id="Layer_2" data-name="Layer 2"><g id="Layer_1-2" data-name="Layer 1"><g class="cls-1"><path d="M117.53,35.06a32.11,32.11,0,0,0-11.72-2.43q-15.57,0-15.57,17.25V61.5h23.63V84.1H90.24v81.1H60V84.1H42.62V61.5H60V48.19q0-17.71,11.53-28.31t30.29-10.6a53,53,0,0,1,15.75,2Z" transform="translate(0 -9.28)"/><path d="M281.5,61.5l-30,103.7H219.72l-15.94-62.26a55.74,55.74,0,0,1-1.69-12.84h-.65a79,79,0,0,1-2,12.47L182.31,165.2h-31.4L121.37,61.5h30.94l15.1,68.82a84.45,84.45,0,0,1,1.5,11.34h.65a60.68,60.68,0,0,1,1.78-11.72L189.91,61.5H218.6l16.59,68.91a100.39,100.39,0,0,1,1.41,11.44h.75a81.37,81.37,0,0,1,1.59-11.44L253.38,61.5Z" transform="translate(0 -9.28)"/></g><circle class="cls-2" cx="17" cy="129.79" r="17"/></g></g></svg>