<svg xmlns="http://www.w3.org/2000/svg" width="373.01" height="203.64" viewBox="0 0 373.01 203.64"><defs><style>.cls-1{isolation:isolate;}.cls-2{fill:red;}</style></defs><g id="Layer_2" data-name="Layer 2"><g id="Layer_1-2" data-name="Layer 1"><g class="cls-1"><path d="M82,152.73v60.19H51.71V61.5H82V77.35h.37Q94.28,59,116,59,135.82,59,147,72.8t11.15,37.64q0,26-12.93,41.63t-33.94,15.66q-19,0-28.88-15Zm-.47-33.38q0,11.07,6,18.1a19.51,19.51,0,0,0,15.56,7q11.34,0,17.67-8.82t6.33-24.94q0-28.5-22.22-28.5A20.85,20.85,0,0,0,88,90.1Q81.53,98,81.53,110.35Z" transform="translate(0 -9.28)"/><path d="M279.63,165.2H249.44V150.57H249q-11,17.16-32.44,17.16-19.78,0-31.45-14t-11.67-38.07q0-25.5,13.07-41.11T220.66,59Q240.91,59,249,73.6h.47V11.72h30.19Zm-29.72-58.69q0-10.5-6.33-17.4a20.57,20.57,0,0,0-15.8-6.89A20.31,20.31,0,0,0,210.39,91q-6.33,8.76-6.33,23.77,0,14.25,6.1,22t16.78,7.74a20.15,20.15,0,0,0,16.5-8.16q6.47-8.16,6.47-21.19Z" transform="translate(0 -9.28)"/><path d="M373,35.06a32.11,32.11,0,0,0-11.72-2.43q-15.57,0-15.56,17.25V61.5h23.62V84.1H345.73v81.1H315.44V84.1H298.1V61.5h17.34V48.19q0-17.71,11.54-28.31t30.28-10.6a53,53,0,0,1,15.75,2Z" transform="translate(0 -9.28)"/></g><g class="cls-1"><path d="M121.45,209.53q-2.91,1.69-8.29,1.7a14,14,0,0,1-10.27-3.87,13.42,13.42,0,0,1-3.92-10q0-7.08,4.22-11.17t11.25-4.08c3.17,0,5.51.43,7,1.3v7a10.15,10.15,0,0,0-6.08-2,8,8,0,0,0-6,2.26,8.42,8.42,0,0,0-2.25,6.21,8.23,8.23,0,0,0,2.14,6,7.69,7.69,0,0,0,5.8,2.2,11.23,11.23,0,0,0,6.33-2.06Z" transform="translate(0 -9.28)"/><path d="M125.55,196.79q0-6.87,4.11-10.78t11-3.92q6.7,0,10.66,3.85t3.94,10.37q0,6.84-4.05,10.88t-10.95,4q-6.78,0-10.77-3.88T125.55,196.79Zm8.22-.1q0,8.31,6.78,8.31,6.51,0,6.51-8.54,0-8.15-6.56-8.14a6,6,0,0,0-5,2.18A9.61,9.61,0,0,0,133.77,196.69Z" transform="translate(0 -9.28)"/><path d="M187.44,210.56h-8.07V195.05q0-6.74-4.85-6.73a4.83,4.83,0,0,0-3.84,1.8,6.8,6.8,0,0,0-1.53,4.58v15.86H161V182.77h8.12v4.42h.1a9.78,9.78,0,0,1,8.94-5.1q9.24,0,9.25,11.45Z" transform="translate(0 -9.28)"/></g><g class="cls-1"><path d="M220.32,182.77l-10.43,27.79h-9.17l-9.92-27.79h8.69l5.1,17.48a22.36,22.36,0,0,1,.93,4.8h.13a26.12,26.12,0,0,1,1-4.65l5.2-17.63Z" transform="translate(0 -9.28)"/></g><g class="cls-1"><path d="M248.19,199H229.9q.42,6.45,7.79,6.45a14.64,14.64,0,0,0,8.11-2.26v6a20.23,20.23,0,0,1-10,2.13q-6.63,0-10.31-3.74t-3.68-10.43a15.08,15.08,0,0,1,3.92-10.81,12.92,12.92,0,0,1,9.84-4.16q5.91,0,9.24,3.58t3.33,9.83Zm-7.57-5.08q0-6.23-5.05-6.23a4.93,4.93,0,0,0-3.69,1.71,8.11,8.11,0,0,0-2,4.52Z" transform="translate(0 -9.28)"/></g><g class="cls-1"><path d="M271.18,190.13a7.11,7.11,0,0,0-3.6-.86,5.25,5.25,0,0,0-4.38,2.11,9.35,9.35,0,0,0-1.62,5.81v13.37h-8.12V182.77h8.12V188h.1q2-5.7,7.31-5.7a5.88,5.88,0,0,1,2.19.32Z" transform="translate(0 -9.28)"/></g><g class="cls-1"><path d="M293.21,210.23a11.91,11.91,0,0,1-5.55,1q-8.85,0-8.85-9.29V188.82h-4.57v-6h4.57v-6.11l8.07-2.31v8.42h6.33v6h-6.33v11.71q0,4.46,3.52,4.45a5.78,5.78,0,0,0,2.81-.81Z" transform="translate(0 -9.28)"/></g><g class="cls-1"><path d="M322.61,199H304.32q.42,6.45,7.79,6.45a14.64,14.64,0,0,0,8.11-2.26v6a20.23,20.23,0,0,1-10,2.13q-6.63,0-10.31-3.74t-3.68-10.43a15.08,15.08,0,0,1,3.92-10.81,12.92,12.92,0,0,1,9.84-4.16q5.91,0,9.24,3.58t3.33,9.83ZM315,193.87q0-6.23-5.05-6.23a4.93,4.93,0,0,0-3.69,1.71,8.11,8.11,0,0,0-2,4.52Z" transform="translate(0 -9.28)"/><path d="M345.6,190.13a7.09,7.09,0,0,0-3.59-.86,5.26,5.26,0,0,0-4.39,2.11,9.35,9.35,0,0,0-1.62,5.81v13.37h-8.12V182.77H336V188h.1q2-5.7,7.31-5.7a5.88,5.88,0,0,1,2.19.32Z" transform="translate(0 -9.28)"/></g><circle class="cls-2" cx="17" cy="162.81" r="17"/></g></g></svg>